<svg id="Layer_1" data-name="Layer 1" xmlns="http://www.w3.org/2000/svg" viewBox="0 0 1081.63 78.74"><defs><style>.cls-1{fill:none;stroke:#fff;stroke-miterlimit:10;stroke-width:3px;}</style></defs><title>title</title><path class="cls-1" d="M-18.5-327.5s16,30,58,30,67-39,39-39,10,39,48,39,57-39,34-39-4,37,19,38,21.17,21.67,21.17,21.67,34.83,2.33,32.83.33-7-6-7-30c33,1,29-5,34-19-5-28-29-22-60-22-2,6,7,8,7,8s1,50-1,53,19-25,19-25,2-32,5-32,13,12,11,19-11,13-11,13,36,37,66,36,41-18,41-36-18-38-40-37-38,19-36,41,34,28,34,28a15.36,15.36,0,0,0,3-.39c5.34-1.17,16-5.86,16-24.61,0-25-7-39-16-39s-17,24-14,36,0,22,11,23,27,9,44,9h29v-3s-6-8-6-27c10-3,1-7,1-7s0-28,2-29,13,4,12,17-9,12-9,12l1,7s12,13,8,21-1,9-1,9h29v-3s-10-7-11-11-15-18-15-18,16,0,17-18-16.72-22.2-16.72-22.2-44.24-3.2-42.26,0,6,10.2,6,10.2v52s-9,6-6,6,85,4,85,4l-3-3s8-8,8-19v-45s-5-4-24,12c-4-2,1-19,1-19l65,1.8s7,15.2,4,17.2-14-13-26-14c1,19,1,49,1,49s2,13,5,16,0,4,0,4h56v-3s-6-4-6-29l11,1s7,9,9,8,1-24-2-24-7,10-7,10h-11s-1-30,4-31,9,5,9,5,9,10,16,7,3-13,3-13-8.35-3.4-10.67-3.2-46.63-3.2-47.48,0,7.15,6.2,7.15,10.2v52s-7,4-6,6,99,4,99,4,31-11,31-37-25.65-35.4-39.33-35.2-40.67,13.2-36.67,41.2,29,28,29,28,26-1,24-34-16-29-16-29-15,6-14,31,12,27,12,27l46,8h53s5-24,3-22-10,12-16,14l-12,4s-8-20-6-36,7.76-32.2,7.76-32.2-28.89-4.2-31.83,0,7.07,6.2,7.07,11.2-1,51-1,51-8,2-6,6c1.21,2.42,35.47,4.48,62.5,5.06,17.58.37,32.11.12,32.5-1.06,1-3-9-9-7-36s7.07-36.2,7.07-36.2-36.16-3.2-34.61,0,9.54,18.2,7.54,36.2-1,31-5,32c0,0,63,8,74,5s36-9,35-41-35.89-32.2-35.89-32.2-41.11.2-38.11,36.2,39,30,39,30,12-6,13-30-8-29-15-30-16,16-15,30,9,27,9,27,58,20,79,0,22-44,0-43-13,48,42,49c13.21.24,22.43-2.69,28.5-7.21,19.2-14.32,6.74-44.59-11.5-40.79-24,5-16,45,28,47,0,0,62,7,64-26s-37-25-32-6,45,48,77,32,45-39,45-39" transform="translate(19.82 351.06)"/></svg>