<svg xmlns="http://www.w3.org/2000/svg" width="357" height="55" viewBox="0 0 357 55"><g><g><g><path fill="#fff" d="M37.883 20.363c-1.958 0-3.55 1.471-3.55 3.279 0 1.808 1.592 3.28 3.55 3.28 1.958 0 3.55-1.472 3.55-3.28 0-1.808-1.592-3.279-3.55-3.279z"/></g><g><path fill="#fff" d="M3.061.525v5.249h4.09v37.495c-.019 2.89-1.186 4.006-1.232 4.048l-.052.052c-.012.015-1.338 1.431-5.093 1.2L0 48.524l1.867 6.312.284.065c.043.01.483.106 1.198.106 1.087 0 2.812-.223 4.746-1.313.44-.194 4.861-2.37 4.775-11.273V.525z"/></g><g><g><path fill="#fff" d="M87.173 28.758v-9.414h13.97v-4.819H87.087V5.238h14.572l.019-4.713H81.59v33.05h20.505v-4.791z"/></g></g><g><path fill="#fff" d="M155.314 19.634c-.24-.55-1.653-2.745-9.723-6.63-1.023-.558-3.7-2.33-3.8-3.794l-.025-.128c-.003-.01-.322-1.005.216-1.998.47-.866 1.448-1.501 2.905-1.886.039-.01 3.881-.988 7.583 1.181.48.255 1.812 1.034 2.215 1.565l.913 1.204v-6.7l-.222-.152c-.19-.129-4.722-3.167-10.69-2.05-.066.005-6.53.634-8.197 6.452-.06.189-1.397 4.677 2.182 8.043.056.06 1.464 1.54 9.547 6.025.012.007 1.192.63 2.14 1.733 1.213 1.412 1.463 2.913.748 4.447-.015.03-1.516 2.896-6.548 2.098l-.056-.006c-.035-.002-3.506-.215-7.273-4.2l-.877-.929v6.936l.17.152c.113.1 2.844 2.474 9.092 3.004.06.008.463.058 1.094.058 1.83 0 5.568-.422 8.319-3.517.044-.051 4.417-5.21.287-10.908z"/></g><g><path fill="#fff" d="M209.353.5h-22.716l.015 4.642 8.863-.053.056 28.528h4.71V5.063h9.072z"/></g><g><path fill="#fff" d="M237.899.5l-.046 33.117h5.375V.501z"/></g><g><path fill="#fff" d="M295.926.5v23.52L280.382.5h-3.864v33.117h4.382V10.368l15.383 23.25h4.078V.5z"/></g><g><path fill="#fff" d="M342.82 9.293l3.672 9.733h-7.081zm9.178 24.324H357L344.722.51l-3.676.009-11.78 33.098h5.034l3.334-9.519h10.772z"/></g></g></g></svg>