<svg xmlns="http://www.w3.org/2000/svg" width="64" height="50" viewBox="0 0 64 50"><defs><clipPath id="eh92a"><path fill="#fff" d="M13 50C5.82 50 0 44.18 0 37V13C0 5.82 5.82 0 13 0h38c7.18 0 13 5.82 13 13v24c0 7.18-5.82 13-13 13z"/></clipPath></defs><g><g><g opacity=".2"/><g><path fill="none" stroke="#fff" stroke-linecap="round" stroke-miterlimit="20" stroke-width="8" d="M13 50C5.82 50 0 44.18 0 37V13C0 5.82 5.82 0 13 0h38c7.18 0 13 5.82 13 13v24c0 7.18-5.82 13-13 13z" clip-path="url(&quot;#eh92a&quot;)"/></g><g transform="rotate(90 33 24.5)"><path fill="#fff" d="M30.48 17.866c1.173-1.821 3.868-1.821 5.04 0l6.51 10.11c1.262 1.96-.166 4.524-2.52 4.524H26.49c-2.354 0-3.782-2.563-2.52-4.524z"/></g></g></g></svg>