<svg xmlns="http://www.w3.org/2000/svg" width="58" height="58" viewBox="0 0 58 58"><defs><clipPath id="96o8a"><path fill="#fff" d="M15 58C6.716 58 0 51.284 0 43V15C0 6.716 6.716 0 15 0h28c8.284 0 15 6.716 15 15v28c0 8.284-6.716 15-15 15z"/></clipPath><clipPath id="96o8b"><path fill="#fff" d="M43 12.5a2.5 2.5 0 1 1 5 0 2.5 2.5 0 0 1-5 0z"/></clipPath></defs><g><g><g><g><g opacity=".2"/></g></g><g><path fill="none" stroke="#fff" stroke-linecap="round" stroke-miterlimit="20" stroke-width="8" d="M15 58C6.716 58 0 51.284 0 43V15C0 6.716 6.716 0 15 0h28c8.284 0 15 6.716 15 15v28c0 8.284-6.716 15-15 15z" clip-path="url(&quot;#96o8a&quot;)"/></g><g><path fill="none" stroke="#fff" stroke-miterlimit="20" stroke-width="4" d="M17 29c0-6.627 5.373-12 12-12s12 5.373 12 12-5.373 12-12 12-12-5.373-12-12z"/></g><g><path fill="none" stroke="#fff" stroke-miterlimit="20" stroke-width="6" d="M43 12.5a2.5 2.5 0 1 1 5 0 2.5 2.5 0 0 1-5 0z" clip-path="url(&quot;#96o8b&quot;)"/></g></g></g></svg>